<svg width="151" height="85" viewBox="0 0 151 85" fill="none" xmlns="http://www.w3.org/2000/svg">
<path d="M10.9773 56.188V71.1198H2.64205V36.2107H10.7045V49.7448H10.9943C11.5852 48.1312 12.5511 46.8698 13.892 45.9607C15.2443 45.0516 16.8977 44.5971 18.8523 44.5971C20.6932 44.5971 22.2955 45.0062 23.6591 45.8244C25.0227 46.6312 26.0795 47.7732 26.8295 49.2505C27.5909 50.7278 27.9659 52.455 27.9545 54.4323V71.1198H19.6193V56.0687C19.6307 54.6141 19.267 53.4778 18.5284 52.6596C17.7898 51.8414 16.75 51.4323 15.4091 51.4323C14.5341 51.4323 13.7614 51.6255 13.0909 52.0119C12.4318 52.3869 11.9148 52.9266 11.5398 53.6312C11.1761 54.3357 10.9886 55.188 10.9773 56.188ZM40.5384 71.563C38.8679 71.563 37.3849 71.2846 36.0895 70.7278C34.8054 70.1596 33.7884 69.3073 33.0384 68.1709C32.2997 67.0232 31.9304 65.5857 31.9304 63.8584C31.9304 62.4039 32.1861 61.1766 32.6974 60.1766C33.2088 59.1766 33.9134 58.3641 34.8111 57.7391C35.7088 57.1141 36.7429 56.6425 37.9134 56.3244C39.0838 55.9948 40.3338 55.7732 41.6634 55.6596C43.152 55.5232 44.3509 55.3812 45.2599 55.2334C46.169 55.0744 46.8281 54.8528 47.2372 54.5687C47.6577 54.2732 47.8679 53.8584 47.8679 53.3244V53.2391C47.8679 52.3641 47.5668 51.688 46.9645 51.2107C46.3622 50.7334 45.5497 50.4948 44.527 50.4948C43.4247 50.4948 42.5384 50.7334 41.8679 51.2107C41.1974 51.688 40.7713 52.3471 40.5895 53.188L32.902 52.9153C33.1293 51.3244 33.7145 49.9039 34.6577 48.6539C35.6122 47.3925 36.919 46.4039 38.5781 45.688C40.2486 44.9607 42.2543 44.5971 44.5952 44.5971C46.2656 44.5971 47.8054 44.7959 49.2145 45.1937C50.6236 45.58 51.8509 46.1482 52.8963 46.8982C53.9418 47.6369 54.7486 48.5459 55.3168 49.6255C55.8963 50.705 56.1861 51.938 56.1861 53.3244V71.1198H48.3452V67.4721H48.1406C47.6747 68.3584 47.0781 69.1084 46.3509 69.7221C45.6349 70.3357 44.7884 70.7959 43.8111 71.1028C42.8452 71.4096 41.7543 71.563 40.5384 71.563ZM43.1122 66.1084C44.0099 66.1084 44.8168 65.9266 45.5327 65.563C46.2599 65.1994 46.8395 64.6994 47.2713 64.063C47.7031 63.4153 47.919 62.6653 47.919 61.813V59.3244C47.6804 59.4494 47.3906 59.563 47.0497 59.6653C46.7202 59.7675 46.3565 59.8641 45.9588 59.955C45.5611 60.0459 45.152 60.1255 44.7315 60.1937C44.3111 60.2619 43.9077 60.3244 43.5213 60.3812C42.7372 60.5062 42.0668 60.6994 41.5099 60.9607C40.9645 61.2221 40.544 61.563 40.2486 61.9834C39.9645 62.3925 39.8224 62.8812 39.8224 63.4494C39.8224 64.313 40.1293 64.9721 40.7429 65.4266C41.3679 65.8812 42.1577 66.1084 43.1122 66.1084ZM61.2827 71.1198V36.2107H69.6179V49.4209H69.7884C70.1293 48.6255 70.6122 47.8584 71.2372 47.1198C71.8736 46.3812 72.6804 45.7789 73.6577 45.313C74.6463 44.8357 75.8281 44.5971 77.2031 44.5971C79.0213 44.5971 80.7202 45.0744 82.2997 46.0289C83.8906 46.9834 85.1747 48.455 86.152 50.4437C87.1293 52.4323 87.6179 54.9664 87.6179 58.0459C87.6179 61.0119 87.1463 63.4948 86.2031 65.4948C85.2713 67.4948 84.0099 68.9948 82.419 69.9948C80.8395 70.9948 79.0838 71.4948 77.152 71.4948C75.8338 71.4948 74.6918 71.2789 73.7259 70.8471C72.7599 70.4153 71.9474 69.8471 71.2884 69.1425C70.6406 68.438 70.1406 67.6823 69.7884 66.8755H69.5327V71.1198H61.2827ZM69.4474 58.0289C69.4474 59.438 69.6349 60.6653 70.0099 61.7107C70.3963 62.7562 70.9474 63.5687 71.6634 64.1482C72.3906 64.7164 73.2599 65.0005 74.2713 65.0005C75.294 65.0005 76.1634 64.7164 76.8793 64.1482C77.5952 63.5687 78.1349 62.7562 78.4986 61.7107C78.8736 60.6653 79.0611 59.438 79.0611 58.0289C79.0611 56.6198 78.8736 55.3982 78.4986 54.3641C78.1349 53.33 77.5952 52.5289 76.8793 51.9607C76.1747 51.3925 75.3054 51.1084 74.2713 51.1084C73.2486 51.1084 72.3793 51.3869 71.6634 51.9437C70.9474 52.5005 70.3963 53.2959 70.0099 54.33C69.6349 55.3641 69.4474 56.5971 69.4474 58.0289ZM91.9858 71.1198V44.938H100.321V71.1198H91.9858ZM96.1619 41.8869C94.9915 41.8869 93.9858 41.5005 93.1449 40.7278C92.304 39.9437 91.8835 39.0005 91.8835 37.8982C91.8835 36.8073 92.304 35.8755 93.1449 35.1028C93.9858 34.3187 94.9915 33.9266 96.1619 33.9266C97.3438 33.9266 98.3494 34.3187 99.179 35.1028C100.02 35.8755 100.44 36.8073 100.44 37.8982C100.44 39.0005 100.02 39.9437 99.179 40.7278C98.3494 41.5005 97.3438 41.8869 96.1619 41.8869ZM120.405 44.938V51.0744H103.888V44.938H120.405ZM107.348 38.6653H115.683V62.8869C115.683 63.3982 115.763 63.813 115.922 64.1312C116.092 64.438 116.337 64.6596 116.655 64.7959C116.973 64.9209 117.354 64.9834 117.797 64.9834C118.115 64.9834 118.45 64.955 118.803 64.8982C119.166 64.83 119.439 64.7732 119.621 64.7278L120.882 70.7448C120.484 70.8584 119.922 71.0005 119.195 71.1709C118.479 71.3414 117.621 71.4494 116.621 71.4948C114.666 71.5857 112.99 71.3584 111.592 70.813C110.206 70.2562 109.143 69.3925 108.405 68.2221C107.678 67.0516 107.325 65.58 107.348 63.8073V38.6653ZM147.188 52.9323L139.534 53.1369C139.455 52.5914 139.239 52.1084 138.886 51.688C138.534 51.2562 138.074 50.9209 137.506 50.6823C136.949 50.4323 136.301 50.3073 135.562 50.3073C134.597 50.3073 133.773 50.5005 133.091 50.8869C132.42 51.2732 132.091 51.7959 132.102 52.455C132.091 52.9664 132.295 53.4096 132.716 53.7846C133.148 54.1596 133.915 54.4607 135.017 54.688L140.062 55.6425C142.676 56.1425 144.619 56.9721 145.892 58.1312C147.176 59.2903 147.824 60.8244 147.835 62.7334C147.824 64.5289 147.29 66.0914 146.233 67.4209C145.188 68.7505 143.756 69.7846 141.938 70.5232C140.119 71.2505 138.04 71.6141 135.699 71.6141C131.96 71.6141 129.011 70.8471 126.852 69.313C124.705 67.7675 123.477 65.6994 123.17 63.1084L131.403 62.9039C131.585 63.8584 132.057 64.5857 132.818 65.0857C133.58 65.5857 134.551 65.8357 135.733 65.8357C136.801 65.8357 137.67 65.6369 138.341 65.2391C139.011 64.8414 139.352 64.313 139.364 63.6539C139.352 63.063 139.091 62.5914 138.58 62.2391C138.068 61.8755 137.267 61.5914 136.176 61.3869L131.608 60.5175C128.983 60.0403 127.028 59.1596 125.744 57.8755C124.46 56.58 123.824 54.9323 123.835 52.9323C123.824 51.1823 124.29 49.688 125.233 48.4494C126.176 47.1994 127.517 46.2448 129.256 45.5857C130.994 44.9266 133.045 44.5971 135.409 44.5971C138.955 44.5971 141.75 45.3414 143.795 46.83C145.841 48.3073 146.972 50.3414 147.188 52.9323Z" fill="white"/>
<rect x="0.5" y="0.619812" width="15" height="15" rx="3.5" fill="#18181B" stroke="#27272A"/>
<rect x="20.5" y="0.619812" width="15" height="15" rx="3.5" fill="#4C1D95" stroke="#6D28D9"/>
<rect x="40.5" y="0.619812" width="15" height="15" rx="3.5" fill="#5B21B6" stroke="#7C3AED"/>
<rect x="60.5" y="0.619812" width="15" height="15" rx="3.5" fill="#6D28D9" stroke="#8B5CF6"/>
<rect x="80.5" y="0.619812" width="15" height="15" rx="3.5" fill="#7C3AED" stroke="#A78BFA"/>
<rect x="100.5" y="0.619812" width="15" height="15" rx="3.5" fill="#8B5CF6" stroke="#C4B5FD"/>
</svg>
